<?xml version="1.0" encoding="UTF-8"?>
<svg version="1.1" xmlns="http://www.w3.org/2000/svg" width="512" height="512">
<path d="M0 0 C8.41735537 7.25206612 8.41735537 7.25206612 10 12 C9.24074219 12.53109375 8.48148437 13.0621875 7.69921875 13.609375 C6.70535156 14.31578125 5.71148437 15.0221875 4.6875 15.75 C3.20830078 16.79414063 3.20830078 16.79414063 1.69921875 17.859375 C-1.79722487 20.63224201 -3.7591162 22.30436696 -4.3984375 26.8046875 C-4.31445762 37.80605157 -0.71168371 43.34291228 7 51 C9.57839383 53.14063597 12.2270487 55.11940803 15 57 C12.98430271 65.06278916 7.90651681 70.99220877 1.1953125 75.6875 C-13.7779276 84.63947273 -34.11884448 85.42205476 -50.86303711 81.81933594 C-60.35425462 79.42839217 -71.65910636 75.00546554 -77.08740234 66.24511719 C-78.08162543 64.50992064 -79.04309642 62.756053 -80 61 C-79.30438965 60.37339478 -79.30438965 60.37339478 -78.59472656 59.73413086 C-76.47107654 57.8113308 -74.36058047 55.87463311 -72.25 53.9375 C-71.15558594 52.95233398 -71.15558594 52.95233398 -70.0390625 51.94726562 C-64.13539494 46.49979056 -59.5862796 41.28796924 -58.9765625 32.9765625 C-59.02497261 28.89397679 -59.61085729 25.57016414 -62.37890625 22.44140625 C-66.85093124 18.44667395 -71.95868714 15.22369666 -77 12 C-72.98632563 3.80541482 -67.05370489 -1.7958313 -58.5078125 -5.15625 C-39.35278823 -11.60093106 -17.12157383 -11.86517411 0 0 Z " fill="#4A4A4A" transform="translate(288,189)"/>
<path d="M0 0 C60.11546163 25.07542429 60.11546163 25.07542429 67.1328125 38.484375 C67.26429688 39.1959375 67.39578125 39.9075 67.53125 40.640625 C67.68851563 41.3521875 67.84578125 42.06375 68.0078125 42.796875 C67.8139353 47.27096433 65.61674894 50.34992865 62.69140625 53.60546875 C44.10455763 70.48563399 21.10855045 90.76329258 -5.4453125 90.35546875 C-16.86153174 89.42937427 -28.26140996 86.72551937 -36.15625 78.015625 C-39.72156807 73.70368738 -40.21585362 70.49626124 -40.15625 64.953125 C-40.14722656 63.86644531 -40.13820312 62.77976562 -40.12890625 61.66015625 C-40.11730469 60.82871094 -40.10570312 59.99726563 -40.09375 59.140625 C-38.15625 58.578125 -38.15625 58.578125 -36.09375 58.140625 C-34.2791707 59.9552043 -34.61897727 62.93559776 -34.34375 65.390625 C-33.72190216 69.51374652 -33.36661074 71.74738453 -30.96875 75.203125 C-19.4110023 82.99204193 -7.74355263 84.31438194 5.90625 83.140625 C9.93327042 82.33522092 13.27155762 81.03134231 16.90625 79.140625 C17.81890625 78.67785156 18.7315625 78.21507812 19.671875 77.73828125 C31.63391536 71.19753993 42.36042733 62.4445169 52.71875 53.640625 C53.29931152 53.14860596 53.87987305 52.65658691 54.47802734 52.1496582 C57.34056476 49.67218293 59.69752893 47.2032981 61.90625 44.140625 C53.56046257 48.28153979 45.23887755 52.46359694 36.96875 56.75390625 C36.22463867 57.13940643 35.48052734 57.52490662 34.71386719 57.92208862 C31.66935084 59.49985605 28.62524462 61.07835567 25.58447266 62.66333008 C23.31883504 63.84345918 21.05030172 65.0178579 18.78125 66.19140625 C18.10715088 66.54455399 17.43305176 66.89770172 16.73852539 67.2615509 C4.43590292 73.60420697 4.43590292 73.60420697 -2.28125 73.390625 C-3.1990625 73.36484375 -4.116875 73.3390625 -5.0625 73.3125 C-10.41415915 73.00905541 -15.75467538 72.61596392 -21.09375 72.140625 C-21.09375 70.820625 -21.09375 69.500625 -21.09375 68.140625 C-15.48375 68.140625 -9.87375 68.140625 -4.09375 68.140625 C-2.11375 64.510625 -0.13375 60.880625 1.90625 57.140625 C0.12734375 57.24890625 0.12734375 57.24890625 -1.6875 57.359375 C-43.02701576 59.78176325 -43.02701576 59.78176325 -60.97412109 44.12817383 C-73.04498097 33.08119842 -83.06720792 17.72999275 -85.09375 1.140625 C-85.29195487 -5.20193081 -84.47236816 -10.00739271 -80.09375 -14.859375 C-58.91969091 -27.68093043 -20.14314315 -8.22236499 0 0 Z M-66.09375 -12.859375 C-60.77618673 -7.07261497 -55.98330446 -4.37672283 -48.09375 -3.859375 C-44.39912497 -3.98573017 -40.72388587 -4.13711613 -37.09375 -4.859375 C-36.76375 -5.519375 -36.43375 -6.179375 -36.09375 -6.859375 C-46.07563362 -9.86503107 -55.58496069 -12.63271484 -66.09375 -12.859375 Z M-78.09375 -7.859375 C-80.60685192 -2.83317116 -79.48390496 2.77368921 -78 7.97265625 C-72.29719847 24.58021998 -62.07034602 39.84457012 -46.09375 48.140625 C-31.22721483 54.42797275 -17.82732295 53.39326944 -2.03125 51.453125 C-1.30317139 51.36581116 -0.57509277 51.27849731 0.17504883 51.1885376 C10.80159914 49.90782932 21.36344237 48.3660292 31.90625 46.515625 C33.6852771 46.20685425 33.6852771 46.20685425 35.50024414 45.8918457 C36.58297607 45.69292725 37.66570801 45.49400879 38.78125 45.2890625 C40.20050781 45.02875244 40.20050781 45.02875244 41.6484375 44.76318359 C44.08467953 44.29133412 44.08467953 44.29133412 45.90625 42.140625 C38.36656096 42.01252744 30.82715837 41.92573643 23.28662109 41.8659668 C20.7282462 41.84101725 18.16994113 41.80704523 15.61181641 41.76342773 C-7.21742799 40.97845203 -7.21742799 40.97845203 -28.09375 49.140625 C-29.08375 49.140625 -30.07375 49.140625 -31.09375 49.140625 C-31.58875 47.160625 -31.58875 47.160625 -32.09375 45.140625 C-31.330625 44.893125 -30.5675 44.645625 -29.78125 44.390625 C-25.71912847 43.01363465 -21.70061632 41.53533029 -17.6796875 40.04296875 C-12.75732407 38.32534646 -8.25113559 37.94097514 -3.046875 37.82421875 C-2.27567322 37.80343765 -1.50447144 37.78265656 -0.7098999 37.76124573 C1.74539572 37.69603928 4.20079521 37.63700016 6.65625 37.578125 C8.32422935 37.53491226 9.99219832 37.4912971 11.66015625 37.44726562 C15.74208196 37.34038764 19.82411182 37.23903934 23.90625 37.140625 C19.99852392 34.65412861 15.68465631 34.44501457 11.19140625 33.95703125 C9.88371529 33.80676987 9.88371529 33.80676987 8.54960632 33.6534729 C5.69020827 33.32815396 2.82963727 33.01505595 -0.03125 32.703125 C-1.00340454 32.59457184 -1.97555908 32.48601868 -2.97717285 32.37417603 C-22.31730032 30.21483948 -41.68586962 28.5507343 -61.09375 27.140625 C-61.09375 26.150625 -61.09375 25.160625 -61.09375 24.140625 C-59.44375 24.140625 -57.79375 24.140625 -56.09375 24.140625 C-55.58862756 22.53806392 -55.08983373 20.93350708 -54.59375 19.328125 C-54.3153125 18.43480469 -54.036875 17.54148437 -53.75 16.62109375 C-52.96586649 14.08489105 -52.96586649 14.08489105 -53.09375 11.140625 C-57.05375 10.150625 -61.01375 9.160625 -65.09375 8.140625 C-65.09375 7.150625 -65.09375 6.160625 -65.09375 5.140625 C-64.50360107 5.32238281 -63.91345215 5.50414062 -63.30541992 5.69140625 C-60.63200138 6.51213496 -57.95667026 7.32644639 -55.28125 8.140625 C-53.8880957 8.56988281 -53.8880957 8.56988281 -52.46679688 9.0078125 C-51.57412109 9.27851563 -50.68144531 9.54921875 -49.76171875 9.828125 C-48.93953857 10.07949219 -48.1173584 10.33085937 -47.27026367 10.58984375 C-44.98321633 11.26328678 -44.98321633 11.26328678 -42.09375 11.140625 C-43.41865399 6.50346104 -44.87345368 2.77377982 -48.09375 -0.859375 C-50.21944104 -1.51036788 -52.31259518 -1.82154741 -54.5078125 -2.16796875 C-60.26959401 -3.7085055 -65.89596316 -7.66158816 -70.09375 -11.859375 C-74.03006364 -11.859375 -75.21980026 -10.43080371 -78.09375 -7.859375 Z M-36.96875 -2.984375 C-37.65710938 -2.87996094 -38.34546875 -2.77554688 -39.0546875 -2.66796875 C-40.73635006 -2.41104808 -42.4153761 -2.13696865 -44.09375 -1.859375 C-43.07986449 4.79648515 -39.85262872 11.08750595 -34.40625 15.140625 C-26.62560806 17.48949804 -19.20423753 18.40654262 -11.09375 18.140625 C-13.40404927 13.13497658 -16.03244137 8.43446823 -18.96875 3.765625 C-19.60554688 2.74726563 -20.24234375 1.72890625 -20.8984375 0.6796875 C-25.467098 -4.60435045 -30.54498968 -4.06745087 -36.96875 -2.984375 Z M-17.09375 0.140625 C-16.81329834 0.83639648 -16.53284668 1.53216797 -16.24389648 2.24902344 C-15.46940868 4.19617553 -14.76118279 6.17084321 -14.11743164 8.16503906 C-11.22441274 14.74057732 -8.18571993 18.01505719 -1.39794922 20.67773438 C5.79137493 23.11418631 13.12068617 25.00193604 20.46875 26.890625 C23.02401598 27.58926852 25.57807164 28.29235475 28.13085938 29 C41.37229809 32.77160238 41.37229809 32.77160238 54.90625 35.140625 C40.20271154 18.23692203 5.63948658 7.0588656 -15.09375 0.140625 C-15.75375 0.140625 -16.41375 0.140625 -17.09375 0.140625 Z M-50.09375 13.140625 C-50.59934908 14.57616525 -51.0980249 16.0141452 -51.59375 17.453125 C-51.8721875 18.25363281 -52.150625 19.05414063 -52.4375 19.87890625 C-53.23308107 22.22831922 -53.23308107 22.22831922 -53.09375 25.140625 C-44.84375 25.800625 -36.59375 26.460625 -28.09375 27.140625 C-26.82666658 25.07213235 -26.82666658 25.07213235 -27.47265625 22.2265625 C-29.5681344 18.23757999 -31.36326278 17.80000205 -35.52148438 16.48046875 C-36.34970703 16.24457031 -37.17792969 16.00867188 -38.03125 15.765625 C-38.85560547 15.50652344 -39.67996094 15.24742187 -40.52929688 14.98046875 C-43.85850814 13.95817642 -46.59070138 13.140625 -50.09375 13.140625 Z M-25.09375 20.140625 C-24.76375 22.450625 -24.43375 24.760625 -24.09375 27.140625 C-16.37144817 28.14284275 -8.64839908 29.13914059 -0.92480469 30.13134766 C1.70199839 30.46950559 4.32862812 30.80901293 6.95507812 31.14990234 C10.73262368 31.63995458 14.51076822 32.12513362 18.2890625 32.609375 C19.46115265 32.76249146 20.6332428 32.91560791 21.84085083 33.07336426 C22.941539 33.21350952 24.04222717 33.35365479 25.17626953 33.49804688 C26.62188766 33.68457825 26.62188766 33.68457825 28.09671021 33.87487793 C31.04943029 34.15416805 33.94213136 34.18568478 36.90625 34.140625 C33.37671596 31.78760231 29.80997272 30.75411423 25.78515625 29.57421875 C24.56420509 29.21578636 24.56420509 29.21578636 23.31858826 28.85011292 C21.58532086 28.34516183 19.85108142 27.84353735 18.1159668 27.3449707 C16.37872944 26.84172783 14.64420449 26.32900498 12.9128418 25.8059082 C0.14502223 21.94884729 -11.75423538 20.24139144 -25.09375 20.140625 Z M24.59887695 51.65209961 C22.615982 51.94978736 20.62515883 52.1930076 18.63476562 52.43554688 C11.42784261 53.51067784 11.42784261 53.51067784 5.46337891 57.39599609 C2.46303006 61.52386945 0.68364774 65.07648263 -0.09375 70.140625 C7.83840171 68.12263276 14.83181125 64.93640723 22.09375 61.203125 C23.13466797 60.67783203 24.17558594 60.15253906 25.24804688 59.61132812 C30.55137173 56.92094301 35.77772364 54.15100469 40.90625 51.140625 C35.55711031 49.32809306 30.04072255 50.80312628 24.59887695 51.65209961 Z " fill="#555555" transform="translate(156.09375,178.859375)"/>
<path d="M0 0 C1.16595703 -0.04350586 1.16595703 -0.04350586 2.35546875 -0.08789062 C8.12184411 -0.15088464 11.37283857 1.0286346 16.125 4.3125 C19.24332693 7.63871539 20.06511997 10.50828864 20.21484375 15.01953125 C19.33800798 32.89349116 9.91881663 49.06360519 -2.875 61.3125 C-10.10025611 67.33775728 -18.43187944 71.30992556 -26.875 75.3125 C-26.545 75.86421875 -26.215 76.4159375 -25.875 76.984375 C-23.99546272 81.36017273 -24.82367482 85.77354519 -25.875 90.3125 C-29.08180986 97.23494933 -35.06453633 101.28876717 -41.875 104.3125 C-57.34778616 109.57602803 -71.89827351 108.19357387 -86.5 101.375 C-100.29524372 94.39794112 -112.29265739 84.42508327 -123.875 74.3125 C-124.67756226 73.68154419 -124.67756226 73.68154419 -125.49633789 73.0378418 C-128.56695464 70.6160189 -130.68499327 68.7438316 -131.9375 65 C-132.19660156 64.30261719 -132.45570313 63.60523438 -132.72265625 62.88671875 C-132.95823807 58.90598996 -131.82584066 55.76548354 -129.875 52.3125 C-127.76511551 50.37164774 -126.08986332 49.06913363 -123.6875 47.625 C-123.036604 47.21548096 -122.38570801 46.80596191 -121.71508789 46.3840332 C-119.45529004 44.98970088 -117.17092213 43.64647968 -114.875 42.3125 C-113.60317871 41.56758301 -113.60317871 41.56758301 -112.30566406 40.80761719 C-81.72230373 23.10262383 -48.1825187 9.71056622 -13.875 1.3125 C-13.03195312 1.10238281 -12.18890625 0.89226562 -11.3203125 0.67578125 C-7.55005486 0.1156631 -3.80709299 0.04688538 0 0 Z M-17.8125 7.6875 C-19.24819336 8.02007812 -19.24819336 8.02007812 -20.71289062 8.359375 C-24.33216145 9.20758881 -24.33216145 9.20758881 -27.875 10.3125 C-28.205 10.9725 -28.535 11.6325 -28.875 12.3125 C-19.43843222 13.95364222 -11.34243324 14.41710334 -2.875 9.3125 C-0.38962385 7.25263838 -0.38962385 7.25263838 1.125 5.3125 C-5.53773123 5.01428588 -11.35649267 6.09474975 -17.8125 7.6875 Z M0.01171875 9.6796875 C-3.98334199 13.13711067 -8.09294398 15.21316577 -13.37890625 15.5078125 C-17.113373 15.9725005 -17.113373 15.9725005 -19.08984375 19.25390625 C-19.69025258 20.44812601 -20.26403664 21.65604981 -20.8125 22.875 C-21.11478516 23.49052734 -21.41707031 24.10605469 -21.72851562 24.74023438 C-22.46737388 26.25313462 -23.17444006 27.78148907 -23.875 29.3125 C-17.51051262 28.03960252 -11.57409522 26.24899089 -5.4765625 24.01953125 C-2.875 23.3125 -2.875 23.3125 0.125 24.3125 C-3.835 25.9625 -7.795 27.6125 -11.875 29.3125 C-11.565625 30.900625 -11.25625 32.48875 -10.9375 34.125 C-10.67646484 35.46498047 -10.67646484 35.46498047 -10.41015625 36.83203125 C-9.89758847 39.42647171 -9.89758847 39.42647171 -8.875 42.3125 C-7.555 42.3125 -6.235 42.3125 -4.875 42.3125 C-4.875 42.9725 -4.875 43.6325 -4.875 44.3125 C-5.85288483 44.41192902 -5.85288483 44.41192902 -6.8505249 44.5133667 C-13.79770415 45.22088416 -20.74402083 45.93648341 -27.68994141 46.65625 C-30.26298147 46.92188709 -32.83621718 47.18563755 -35.40966797 47.44726562 C-53.64262544 49.30267421 -71.75394084 51.57637722 -89.875 54.3125 C-89.875 54.6425 -89.875 54.9725 -89.875 55.3125 C-88.86824219 55.31660889 -87.86148438 55.32071777 -86.82421875 55.32495117 C-83.00667493 55.34710143 -79.19011049 55.40174502 -75.37304688 55.46508789 C-73.73642528 55.48796092 -72.09966291 55.50258969 -70.46289062 55.50805664 C-57.52029372 55.55973163 -45.46002947 57.07538435 -33.875 63.3125 C-33.875 64.6325 -33.875 65.9525 -33.875 67.3125 C-38.89728408 66.21035287 -43.64995755 64.24021615 -48.46484375 62.46875 C-53.21395458 60.85851311 -57.38981399 60.18724195 -62.3996582 60.19897461 C-63.48040115 60.19905014 -64.5611441 60.19912567 -65.67463684 60.19920349 C-67.40770332 60.20694542 -67.40770332 60.20694542 -69.17578125 60.21484375 C-70.36729294 60.2162587 -71.55880463 60.21767365 -72.78642273 60.21913147 C-76.58680751 60.22472272 -80.38713307 60.23727368 -84.1875 60.25 C-86.76627519 60.25501613 -89.3450513 60.25957884 -91.92382812 60.26367188 C-98.24090557 60.27468929 -104.55794855 60.29141878 -110.875 60.3125 C-108.14865775 63.03884225 -105.30819071 63.1342215 -101.640625 63.71484375 C-100.53426193 63.89853516 -100.53426193 63.89853516 -99.4055481 64.0859375 C-96.98023301 64.48420895 -94.55298394 64.86835626 -92.125 65.25 C-90.88547577 65.44784592 -90.88547577 65.44784592 -89.62091064 65.64968872 C-78.19378929 67.46617697 -66.75907337 69.05498481 -55.25 70.25 C-54.05665039 70.37818115 -52.86330078 70.5063623 -51.63378906 70.63842773 C-35.49988163 72.17701791 -22.37799583 69.54309675 -9.3671875 59.3984375 C2.90913235 49.12327324 12.30029444 35.34380428 14.56640625 19.16015625 C14.74858648 14.78195396 14.53821001 12.07770372 12.4375 8.1875 C6.96080996 3.74694051 4.68536998 5.3203165 0.01171875 9.6796875 Z M-45.11181641 20.98925781 C-46.34759721 22.78037349 -47.5241615 24.59861219 -48.6875 26.4375 C-49.09419922 27.05753906 -49.50089844 27.67757812 -49.91992188 28.31640625 C-52.31562967 32.01277715 -52.31562967 32.01277715 -52.875 36.3125 C-50.01896497 36.05560796 -47.16602682 35.78246134 -44.3125 35.5 C-43.51263672 35.42974609 -42.71277344 35.35949219 -41.88867188 35.28710938 C-36.65905381 34.75347488 -32.47068612 33.93454369 -27.875 31.3125 C-25.57022602 28.55047701 -25.57022602 28.55047701 -23.9375 25.3125 C-23.35097656 24.260625 -22.76445312 23.20875 -22.16015625 22.125 C-20.66719476 19.37309753 -20.66719476 19.37309753 -20.875 16.3125 C-22.93672613 15.97441314 -24.9994203 15.64222639 -27.0625 15.3125 C-28.21105469 15.126875 -29.35960937 14.94125 -30.54296875 14.75 C-31.64253906 14.605625 -32.74210937 14.46125 -33.875 14.3125 C-34.73738281 14.18875 -35.59976563 14.065 -36.48828125 13.9375 C-40.6842158 14.59676304 -42.68733013 17.70237037 -45.11181641 20.98925781 Z M-55.265625 20.234375 C-56.35633301 20.67724854 -57.44704102 21.12012207 -58.57080078 21.57641602 C-59.74368652 22.06682373 -60.91657227 22.55723145 -62.125 23.0625 C-63.33269043 23.56257568 -64.54038086 24.06265137 -65.78466797 24.57788086 C-94.88920073 35.6094414 -94.88920073 35.6094414 -119.875 53.3125 C-112.51279488 51.95133384 -105.31826505 50.18160171 -98.1015625 48.1953125 C-97.01539642 47.89688446 -95.92923035 47.59845642 -94.81015015 47.29098511 C-92.53218725 46.66275468 -90.2548195 46.03236256 -87.97802734 45.39990234 C-84.49247545 44.43541789 -81.00225502 43.48923093 -77.51171875 42.54296875 C-75.29135448 41.92820978 -73.07129119 41.31236244 -70.8515625 40.6953125 C-69.80988922 40.41599884 -68.76821594 40.13668518 -67.69497681 39.84890747 C-66.72651825 39.57537445 -65.75805969 39.30184143 -64.76025391 39.02001953 C-63.91105377 38.78622589 -63.06185364 38.55243225 -62.18692017 38.31155396 C-58.19905173 36.58826965 -55.78609702 33.46541879 -53.515625 29.859375 C-53.12246094 29.240625 -52.72929687 28.621875 -52.32421875 27.984375 C-51.92847656 27.35015625 -51.53273438 26.7159375 -51.125 26.0625 C-50.50818359 25.08796875 -50.50818359 25.08796875 -49.87890625 24.09375 C-48.87294914 22.5029341 -47.87332638 20.90811567 -46.875 19.3125 C-50.64092302 18.05719233 -51.64630321 18.75511112 -55.265625 20.234375 Z M-23.203125 32.625 C-24.00234375 32.89570313 -24.8015625 33.16640625 -25.625 33.4453125 C-26.45 33.73148438 -27.275 34.01765625 -28.125 34.3125 C-28.96546875 34.59867188 -29.8059375 34.88484375 -30.671875 35.1796875 C-32.74143416 35.88521903 -34.8084702 36.59814402 -36.875 37.3125 C-37.205 39.9525 -37.535 42.5925 -37.875 45.3125 C-33.72799195 45.03618088 -29.58275534 44.73889133 -25.4375 44.4375 C-24.25349609 44.35886719 -23.06949219 44.28023437 -21.84960938 44.19921875 C-20.16254883 44.07353516 -20.16254883 44.07353516 -18.44140625 43.9453125 C-17.39927979 43.87199707 -16.35715332 43.79868164 -15.28344727 43.72314453 C-14.48865967 43.58763184 -13.69387207 43.45211914 -12.875 43.3125 C-11.46592717 40.49435434 -12.36627309 39.13972796 -13.3125 36.1875 C-13.59996094 35.27742188 -13.88742187 34.36734375 -14.18359375 33.4296875 C-14.52583984 32.38167969 -14.52583984 32.38167969 -14.875 31.3125 C-18.32759693 31.3125 -20.0658107 31.54934938 -23.203125 32.625 Z M-77.69018555 44.4050293 C-80.59076476 45.25831486 -83.49683167 46.090437 -86.40429688 46.91992188 C-88.2529558 47.45451468 -90.10127658 47.99027854 -91.94921875 48.52734375 C-92.8168132 48.77636948 -93.68440765 49.0253952 -94.57829285 49.28196716 C-95.37705338 49.51883743 -96.1758139 49.7557077 -96.9987793 49.99975586 C-97.7012529 50.20547714 -98.4037265 50.41119843 -99.12748718 50.62315369 C-101.09212812 51.264093 -101.09212812 51.264093 -102.875 53.3125 C-102.29572754 53.24256836 -101.71645508 53.17263672 -101.11962891 53.10058594 C-98.2464805 52.75404758 -95.3732412 52.40826811 -92.5 52.0625 C-91.41122559 51.93117676 -90.32245117 51.79985352 -89.20068359 51.66455078 C-82.38566447 50.84523299 -75.56896104 50.04352321 -68.75 49.2578125 C-66.43151998 48.9894616 -64.11306566 48.72088962 -61.7946167 48.45227051 C-60.26614442 48.27590363 -58.73753862 48.10069002 -57.20880127 47.92663574 C-55.04771571 47.68050379 -52.88711284 47.43046794 -50.7265625 47.1796875 C-48.85218506 46.96481689 -48.85218506 46.96481689 -46.93994141 46.74560547 C-43.84256265 46.4018974 -43.84256265 46.4018974 -40.875 45.3125 C-40.545 43.0025 -40.215 40.6925 -39.875 38.3125 C-53.3591757 38.2715825 -64.79778916 40.60767284 -77.69018555 44.4050293 Z M-126.875 61.3125 C-126.43459998 65.61640928 -123.69554654 67.73476431 -120.625 70.4375 C-120.0892334 70.91687012 -119.5534668 71.39624023 -119.00146484 71.89013672 C-102.03905772 86.87203625 -81.9525751 103.01739657 -58.328125 102.6328125 C-48.46949769 101.71832445 -40.48604454 98.3087386 -33.0625 91.875 C-29.36353834 87.31057616 -29.96635846 80.91028191 -29.875 75.3125 C-30.69097656 75.33570313 -31.50695312 75.35890625 -32.34765625 75.3828125 C-44.26684657 75.56438885 -56.02042079 74.47431983 -67.875 73.3125 C-66.23047311 78.67642417 -63.93316086 82.6447808 -60.875 87.3125 C-54.935 86.9825 -48.995 86.6525 -42.875 86.3125 C-43.205 86.9725 -43.535 87.6325 -43.875 88.3125 C-46.9284 88.85775 -49.78595463 89.12068347 -52.875 89.3125 C-54.08800781 89.43625 -55.30101562 89.56 -56.55078125 89.6875 C-69.37966652 90.64663998 -78.70048559 86.15682727 -89.875 80.3125 C-91.83839225 79.30439645 -93.80193804 78.29659188 -95.765625 77.2890625 C-99.69783509 75.25846089 -103.61696551 73.20512195 -107.52734375 71.1328125 C-113.92159688 67.74661772 -120.38345583 64.50764479 -126.875 61.3125 Z M-104.875 68.3125 C-99.7215404 72.6874697 -93.97808861 75.54006777 -87.97436523 78.54077148 C-86.07173634 79.49536591 -84.17954703 80.4687503 -82.28710938 81.44335938 C-76.1709855 84.54259362 -70.81626779 87.14702436 -63.875 87.3125 C-67.57676515 78.5803439 -67.57676515 78.5803439 -74 72.04296875 C-76.63858442 71.55281505 -79.19280233 71.44342079 -81.875 71.3125 C-84.99002324 70.83210915 -88.08657046 70.25099422 -91.1875 69.6875 C-97.98599655 68.49453395 -97.98599655 68.49453395 -104.875 68.3125 Z " fill="#565656" transform="translate(420.875,158.6875)"/>
<path d="M0 0 C1.155 0.391875 2.31 0.78375 3.5 1.1875 C5.33269862 1.79358931 7.16614645 2.39741423 9 3 C10.23363281 3.40992188 11.46726563 3.81984375 12.73828125 4.2421875 C38.71269385 12.74646816 67.04031669 12.65507071 92.7578125 2.734375 C95 2 95 2 99 2 C100.91958262 10.39817396 101.22588024 18.40400201 101 27 C95.4770908 29.93971384 90.22678197 32.02991597 84.1875 33.625 C83.45724609 33.82867187 82.72699219 34.03234375 81.97460938 34.2421875 C52.06413562 42.3640916 24.34109486 38.67054743 -3 25 C-3.62867647 7.25735294 -3.62867647 7.25735294 0 0 Z " fill="#4B4B4B" transform="translate(206,305)"/>
<path d="M0 0 C0.57331055 0.2266333 1.14662109 0.4532666 1.73730469 0.68676758 C36.72871019 14.45243984 67.37091134 14.41348483 103 2 C103.20118742 7.32799788 102.54213147 11.85732633 101.1875 17 C101.02185547 17.67289062 100.85621094 18.34578125 100.68554688 19.0390625 C97.72157215 30.62652596 97.72157215 30.62652596 94.22265625 33.41796875 C91.49741399 34.3888055 88.79355705 35.23960421 86 36 C85.34386719 36.18191895 84.68773437 36.36383789 84.01171875 36.55126953 C64.43007843 41.76863 42.51555308 42.60579777 23.02001953 36.60644531 C20.94257161 35.98275899 18.85319514 35.47429875 16.74609375 34.9609375 C7.51961129 32.39112346 7.51961129 32.39112346 4.89404297 28.25976562 C2.82563291 23.66629815 1.84750981 18.94546903 1 14 C0.80148438 13.01 0.60296875 12.02 0.3984375 11 C-0.09438921 7.2893048 -0.06451975 3.74214553 0 0 Z " fill="#4C4C4C" transform="translate(203,337)"/>
<path d="M0 0 C0.94359375 0.39832031 1.8871875 0.79664063 2.859375 1.20703125 C25.04762842 10.434204 47.68760897 13.32426221 70.5 4.25 C71.5003125 3.80140625 72.500625 3.3528125 73.53125 2.890625 C76 2 76 2 79 3 C80.09082031 5.17724609 80.09082031 5.17724609 81.078125 8.0234375 C81.43390625 9.044375 81.7896875 10.0653125 82.15625 11.1171875 C82.5171875 12.19226563 82.878125 13.26734375 83.25 14.375 C83.62640625 15.44234375 84.0028125 16.5096875 84.390625 17.609375 C87.13068711 25.60793866 87.13068711 25.60793866 86 29 C83.32283417 30.16821782 80.77299968 31.120541 78 32 C77.18474854 32.26055176 76.36949707 32.52110352 75.52954102 32.78955078 C48.49958719 41.14545144 22.03709795 39.64795573 -4.25390625 29.66015625 C-7 28 -7 28 -7.7590332 25.70947266 C-8.02841378 22.68051056 -7.59550388 20.84922063 -6.6015625 17.98828125 C-6.28703125 17.06595703 -5.9725 16.14363281 -5.6484375 15.19335938 C-5.31070313 14.24267578 -4.97296875 13.29199219 -4.625 12.3125 C-4.295 11.35021484 -3.965 10.38792969 -3.625 9.39648438 C-1.23028274 2.46056548 -1.23028274 2.46056548 0 0 Z " fill="#4C4C4C" transform="translate(216,271)"/>
<path d="M0 0 C2.203125 0.43359375 2.203125 0.43359375 5 2 C6.91146672 4.85713157 8.29344275 7.95463037 9.75 11.0625 C13.54916772 18.71211779 17.35987369 24.49442765 24 30 C25.10601562 31.03060547 25.10601562 31.03060547 26.234375 32.08203125 C30.00275192 35.9548312 30.00275192 35.9548312 35 37 C36.19638933 36.20993157 37.36001663 35.36947884 38.5 34.5 C43.5323034 31.26824552 48.16756628 30.91470338 54 32 C56.52846224 33.15245459 58.74169921 34.42745236 61.02734375 36.00390625 C62.92294547 37.19597733 62.92294547 37.19597733 64.91577148 36.73388672 C68.75128066 35.38334899 71.28120265 32.37954982 74.125 29.5625 C75.12152588 28.57987183 75.12152588 28.57987183 76.13818359 27.57739258 C81.60328696 21.93047172 85.36811371 15.87655066 88.76611328 8.81665039 C91.48316515 3.28171139 91.48316515 3.28171139 94.7734375 1.48828125 C95.50820313 1.32714844 96.24296875 1.16601562 97 1 C95.63914999 4.15213587 94.25870462 7.29533743 92.875 10.4375 C92.30652344 11.75524414 92.30652344 11.75524414 91.7265625 13.09960938 C88.02689044 21.45470211 83.52125556 28.69286908 77.25 35.375 C74.91610748 37.87559913 72.90128274 40.14807589 71 43 C71.99 44.32 72.98 45.64 74 47 C73.40832031 47.6290625 72.81664062 48.258125 72.20703125 48.90625 C63.13453253 58.67350601 63.13453253 58.67350601 59 71 C52.07 71 45.14 71 38 71 C37.505 67.04 37.505 67.04 37 63 C33.81115827 56.88805336 28.65217528 52.029916 24 47 C24.66 45.68 25.32 44.36 26 43 C26.66 43 27.32 43 28 43 C27.04709549 41.87039796 26.08713429 40.74675104 25.125 39.625 C24.48304688 38.87605469 23.84109375 38.12710938 23.1796875 37.35546875 C21.06671146 34.97616666 21.06671146 34.97616666 18.6953125 33.05078125 C9.31895711 24.94757316 4.44672226 13.38850728 0 2 C0 1.34 0 0.68 0 0 Z " fill="#505050" transform="translate(207,100)"/>
<path d="M0 0 C1.54107422 0.39832031 1.54107422 0.39832031 3.11328125 0.8046875 C4.51297063 1.16165526 5.91271313 1.51841473 7.3125 1.875 C7.98345703 2.04902344 8.65441406 2.22304688 9.34570312 2.40234375 C19.73995683 5.03750666 29.63117051 6.38768281 40.375 6.375 C41.59002197 6.37556396 42.80504395 6.37612793 44.05688477 6.37670898 C54.35665441 6.25302253 64.06736857 4.83476457 74.06982422 2.45751953 C76.36887659 1.91256328 78.67975162 1.44530019 81 1 C77.29734125 14.18947092 66.89070304 24.02401462 55.8671875 31.43359375 C48.14348978 35.67722234 38.03156413 35.42730902 29.72265625 33.0703125 C16.2454635 27.08438458 6.88929991 14.63038317 0 2 C0 1.34 0 0.68 0 0 Z " fill="#4D4D4D" transform="translate(214,377)"/>
<path d="M0 0 C2.59070534 2.3024359 3.86036065 4.48848647 5.234375 7.65625 C5.64059082 8.58719482 6.04680664 9.51813965 6.46533203 10.47729492 C7.10124268 11.97353394 7.10124268 11.97353394 7.75 13.5 C8.18812012 14.52649658 8.62624023 15.55299316 9.07763672 16.6105957 C10.39931341 19.73466854 11.70298014 22.86561881 13 26 C13.37866211 26.90669434 13.75732422 27.81338867 14.14746094 28.74755859 C20.95559151 45.24273996 20.95559151 45.24273996 20.05078125 54.75 C19.77837536 57.2886739 19.77837536 57.2886739 22 60 C21.34 60.66 20.68 61.32 20 62 C20.26676204 63.98491642 20.26676204 63.98491642 21 66 C21.33 66.99 21.66 67.98 22 69 C21.01 69.99 21.01 69.99 20 71 C19.90166588 73.37988356 19.90166588 73.37988356 20.25 76 C20.33765625 76.886875 20.4253125 77.77375 20.515625 78.6875 C20.8181979 81.18294681 20.8181979 81.18294681 23 83 C22.625 85.125 22.625 85.125 22 87 C18.66666667 87 15.33333333 87 12 87 C12.33515625 86.28972656 12.6703125 85.57945312 13.015625 84.84765625 C14.10035224 81.7096953 14.09673777 79.71782183 13.75 76.4375 C13.66234375 75.50808594 13.5746875 74.57867187 13.484375 73.62109375 C13.12445871 70.99408391 13.12445871 70.99408391 11.8984375 68.80078125 C11.60195313 68.20652344 11.30546875 67.61226563 11 67 C11.875 64.75 11.875 64.75 13 63 C12.34 62.34 11.68 61.68 11 61 C11.2285372 58.84009942 11.70640663 56.79388913 12.19921875 54.6796875 C11.94589125 51.27218422 10.37414888 49.36040638 8.51245117 46.57421875 C5.57330008 41.57173141 3.66211003 36.05744228 1.60571289 30.64624023 C0.81396488 28.56634818 0.00664009 26.49300916 -0.80273438 24.41992188 C-3.401136 17.69573086 -5.71491569 11.11920941 -7 4 C-4.69 2.68 -2.38 1.36 0 0 Z " fill="#515151" transform="translate(334,317)"/>
<path d="M0 0 C2.97 1.65 5.94 3.3 9 5 C-0.44517151 32.28022068 -0.44517151 32.28022068 -5.4375 43.6875 C-5.75460938 44.42790527 -6.07171875 45.16831055 -6.3984375 45.93115234 C-7.17923182 47.66238781 -8.07913035 49.33903188 -9 51 C-10.485 51.495 -10.485 51.495 -12 52 C-11.83242187 52.62648438 -11.66484375 53.25296875 -11.4921875 53.8984375 C-11.28851563 54.71570313 -11.08484375 55.53296875 -10.875 56.375 C-10.66617188 57.18710937 -10.45734375 57.99921875 -10.2421875 58.8359375 C-10.16226563 59.55007813 -10.08234375 60.26421875 -10 61 C-10.66 61.66 -11.32 62.32 -12 63 C-11.65213292 64.97536745 -11.65213292 64.97536745 -11 67 C-11 70 -11 70 -11.98828125 71.89453125 C-13.16246314 74.33809896 -13.23648812 75.99315321 -13.1875 78.6875 C-13.18105469 79.47511719 -13.17460937 80.26273437 -13.16796875 81.07421875 C-13.20733669 83.00699364 -13.20733669 83.00699364 -12 84 C-11.95936168 85.66617115 -11.957279 87.33388095 -12 89 C-13.3303125 88.5359375 -13.3303125 88.5359375 -14.6875 88.0625 C-17.46709155 87.1709329 -20.13136375 86.50622993 -23 86 C-22.51917969 85.45859375 -22.03835937 84.9171875 -21.54296875 84.359375 C-19.68676442 81.52102712 -19.51262344 79.61207374 -19.3125 76.25 C-19.24675781 75.26515625 -19.18101562 74.2803125 -19.11328125 73.265625 C-19.07589844 72.51796875 -19.03851563 71.7703125 -19 71 C-19.66 70.67 -20.32 70.34 -21 70 C-20.649375 69.484375 -20.29875 68.96875 -19.9375 68.4375 C-18.64415988 65.07481569 -19.40625245 62.49651334 -20 59 C-19.505 58.505 -19.505 58.505 -19 58 C-19.03142283 56.39367261 -19.0997228 54.78803781 -19.18359375 53.18359375 C-19.23392658 46.54287317 -17.43178857 41.20529747 -15.0625 35.0625 C-14.66224609 33.98798584 -14.26199219 32.91347168 -13.84960938 31.80639648 C-9.75546569 20.99380134 -5.17199733 10.34399466 0 0 Z " fill="#505050" transform="translate(175,318)"/>
<path d="M0 0 C5.48329614 1.47911649 8.72007671 5.31312186 12.5625 9.25 C13.22185547 9.90613281 13.88121094 10.56226563 14.56054688 11.23828125 C20.65843252 17.40358071 24.22576571 22.42453425 26 31 C27.32 31.33 28.64 31.66 30 32 C30.0825 32.94875 30.165 33.8975 30.25 34.875 C30.65074923 38.10461791 30.65074923 38.10461791 33.0625 39.375 C33.701875 39.58125 34.34125 39.7875 35 40 C34.9071875 41.299375 34.9071875 41.299375 34.8125 42.625 C35.03092114 46.55658043 35.83795376 48.71965398 38 52 C40.55721737 53.42557356 40.55721737 53.42557356 43 54 C42.67 55.32 42.34 56.64 42 58 C40.35 58 38.7 58 37 58 C36.67 59.32 36.34 60.64 36 62 C35.01 61.67 34.02 61.34 33 61 C32.375 59.109375 32.375 59.109375 32 56.75 C31.26204305 52.94528753 30.44551602 50.10392418 28 47 C25.93299345 45.67206394 25.93299345 45.67206394 24 45 C24.103125 44.236875 24.20625 43.47375 24.3125 42.6875 C24.209375 41.800625 24.10625 40.91375 24 40 C23.175 39.54625 22.35 39.0925 21.5 38.625 C20.675 38.08875 19.85 37.5525 19 37 C18.6875 33.3125 18.6875 33.3125 19 30 C18.29875 29.773125 17.5975 29.54625 16.875 29.3125 C7.37998789 24.97782056 0.96098691 15.21000395 -5 7 C-3.35 4.69 -1.7 2.38 0 0 Z " fill="#4F4F4F" transform="translate(343,276)"/>
<path d="M0 0 C4.39158329 1.4638611 4.87947433 3.97831338 7 8 C6.03900391 9.051875 6.03900391 9.051875 5.05859375 10.125 C3.76115234 11.548125 3.76115234 11.548125 2.4375 13 C1.98004395 13.49967285 1.52258789 13.9993457 1.05126953 14.51416016 C-1.5883399 17.40763163 -4.13189727 20.35551132 -6.625 23.375 C-8.99565138 26.15301868 -11.26149764 27.89091723 -14.4375 29.6875 C-16.4347916 30.75956489 -16.4347916 30.75956489 -18 32 C-18.67154684 34.71658257 -18.67154684 34.71658257 -18 37 C-19.32 37.66 -20.64 38.32 -22 39 C-21.95875 39.78375 -21.9175 40.5675 -21.875 41.375 C-22 44 -22 44 -24 46 C-24.99 46 -25.98 46 -27 46 C-27.28875 46.721875 -27.5775 47.44375 -27.875 48.1875 C-28.58624318 49.96560794 -29.31343404 51.73749187 -30.0625 53.5 C-31.08396592 55.9983643 -31.08396592 55.9983643 -31.5 58.75 C-31.665 59.4925 -31.83 60.235 -32 61 C-32.99 61.495 -32.99 61.495 -34 62 C-34.226875 61.360625 -34.45375 60.72125 -34.6875 60.0625 C-35.85250896 57.72806339 -35.85250896 57.72806339 -38.625 57.25 C-39.40875 57.1675 -40.1925 57.085 -41 57 C-41 56.01 -41 55.02 -41 54 C-40.236875 53.79375 -39.47375 53.5875 -38.6875 53.375 C-35.07369482 51.52607642 -34.37739424 49.76971055 -33 46 C-32.74803177 42.74899636 -32.74803177 42.74899636 -33 40 C-32.360625 39.79375 -31.72125 39.5875 -31.0625 39.375 C-28.65074923 38.10461791 -28.65074923 38.10461791 -28.25 34.875 C-28.1675 33.92625 -28.085 32.9775 -28 32 C-27.36666748 31.92869873 -26.73333496 31.85739746 -26.08081055 31.78393555 C-25.39414307 31.52523682 -24.70747559 31.26653809 -24 31 C-23.1197685 28.95487631 -23.1197685 28.95487631 -22.70703125 26.45703125 C-21.11188212 20.41310479 -18.05892373 17.01644148 -13.6875 12.6875 C-13.03587891 12.01138672 -12.38425781 11.33527344 -11.71289062 10.63867188 C-8.01367426 6.8431796 -4.29982293 3.10853 0 0 Z " fill="#545454" transform="translate(166,279)"/>
<path d="M0 0 C1.73436924 1.05398621 3.46226438 2.11862879 5.1875 3.1875 C6.63189453 4.07501953 6.63189453 4.07501953 8.10546875 4.98046875 C14.44366276 9.40266349 18.07872475 14.90073883 22.0625 21.375 C22.57876953 22.2 23.09503906 23.025 23.62695312 23.875 C31.78394943 36.96775841 31.78394943 36.96775841 32.5625 40.6875 C31.72073965 44.14807033 29.96529321 45.15492867 27 47 C24.1875 47.75 24.1875 47.75 22 48 C17.36733142 42.98738593 14.25864366 38.1955024 11.4375 32 C11.05327881 31.17274414 10.66905762 30.34548828 10.27319336 29.49316406 C5.92134683 19.93104975 2.85703144 10.09569854 0 0 Z " fill="#4F4F4F" transform="translate(300,270)"/>
<path d="M0 0 C0.495 0.99 0.495 0.99 1 2 C0.1985698 4.32896822 -0.66407053 6.54990189 -1.625 8.8125 C-2.19380254 10.18314017 -2.76149339 11.55424217 -3.328125 12.92578125 C-3.61365234 13.61365723 -3.89917969 14.3015332 -4.19335938 15.01025391 C-5.32952082 17.81283132 -6.34388193 20.65736285 -7.375 23.5 C-9.30989249 28.56338749 -11.5933238 33.34076635 -14.125 38.125 C-14.46192871 38.76501953 -14.79885742 39.40503906 -15.14599609 40.06445312 C-18.45077356 46.15400844 -18.45077356 46.15400844 -21 48 C-24.92723734 47.92859568 -27.26553581 47.51412493 -30.5 45.25 C-32 43 -32 43 -31.81640625 40.76953125 C-28.21187382 28.54171548 -18.24294797 13.43332725 -8 6 C-7.26910156 5.443125 -6.53820312 4.88625 -5.78515625 4.3125 C-3.86886393 2.85759968 -1.94097594 1.42170186 0 0 Z " fill="#4F4F4F" transform="translate(210,271)"/>
<path d="M0 0 C4.03121058 0.57627464 6.73985575 1.83445363 10.16015625 4.01953125 C11.11857422 4.62990234 12.07699219 5.24027344 13.06445312 5.86914062 C14.05380859 6.51044922 15.04316406 7.15175781 16.0625 7.8125 C17.05572266 8.44220703 18.04894531 9.07191406 19.07226562 9.72070312 C27.92961435 15.40491413 27.92961435 15.40491413 31 19 C31 22.58086372 30.35711105 24.46433342 28.375 27.4375 C26 29 26 29 22.7734375 28.8515625 C18.64377578 27.91960985 15.6817407 26.2998168 12.25 23.9375 C11.3535376 23.34110718 11.3535376 23.34110718 10.43896484 22.73266602 C4.8465216 18.98083955 -0.61028531 15.03678631 -6 11 C-4.45657029 6.91894938 -2.50065501 3.58427218 0 0 Z " fill="#4F4F4F" transform="translate(308,252)"/>
<path d="M0 0 C3.27742098 3.10026309 5.93104837 5.97098894 8 10 C8 10.66 8 11.32 8 12 C6.61401367 13.23339844 6.61401367 13.23339844 4.66796875 14.609375 C3.95680908 15.1144458 3.24564941 15.6195166 2.51293945 16.13989258 C1.74554443 16.67122803 0.97814941 17.20256348 0.1875 17.75 C-0.58698486 18.28842529 -1.36146973 18.82685059 -2.15942383 19.3815918 C-17.82596343 30.15223598 -17.82596343 30.15223598 -23.1796875 29.77734375 C-26 29 -26 29 -27.9375 26.75 C-29.23226587 23.39884128 -29.44889782 22.30026725 -28 19 C-23.03483682 13.78410938 -16.79554348 10.27284473 -10.625 6.6875 C-8.82486761 5.63001743 -7.02535327 4.57148181 -5.2265625 3.51171875 C-4.43846191 3.05240967 -3.65036133 2.59310059 -2.83837891 2.11987305 C-1.05239344 1.13106679 -1.05239344 1.13106679 0 0 Z " fill="#4F4F4F" transform="translate(201,255)"/>
<path d="M0 0 C3.5750353 1.51816567 5.8997513 3.63152221 8.625 6.375 C9.78902344 7.53128906 9.78902344 7.53128906 10.9765625 8.7109375 C13.79858848 11.90342249 15.0250751 13.77132009 14.9375 18.0625 C14 21 14 21 12.0625 22.625 C0.09090909 28 0.09090909 28 -4 28 C-7.01654064 21.60493385 -7.4923 13.32203867 -5.171875 6.6015625 C-3.74308032 4.07451519 -2.04847813 2.04847813 0 0 Z " fill="#4E4E4E" transform="translate(224,151)"/>
<path d="M0 0 C0.66 0 1.32 0 2 0 C3.25390625 1.64453125 3.25390625 1.64453125 4.5625 3.8125 C4.99691406 4.52019531 5.43132812 5.22789062 5.87890625 5.95703125 C7.98493117 9.79483973 8.19029701 12.99895916 8.25 17.3125 C8.27578125 18.42238281 8.3015625 19.53226563 8.328125 20.67578125 C7.96206402 24.38432757 6.84475279 26.79110107 5 30 C2.72260419 29.09746533 0.4540927 28.17896804 -1.8125 27.25 C-2.45509766 26.99734375 -3.09769531 26.7446875 -3.75976562 26.484375 C-7.537985 24.9182737 -9.99393056 23.62386738 -12 20 C-12.625 17.25 -12.625 17.25 -12 14 C-9.91947084 11.08609361 -7.4704481 8.58320714 -5 6 C-4.05252014 4.8414236 -3.11364303 3.67570253 -2.1875 2.5 C-1.465625 1.675 -0.74375 0.85 0 0 Z " fill="#4E4E4E" transform="translate(285,151)"/>
<path d="M0 0 C4.34840985 1.99065136 7.26597292 4.81266868 10.66015625 8.12890625 C11.30082031 8.73992187 11.94148438 9.3509375 12.6015625 9.98046875 C14.17103501 11.47966637 15.72925316 12.99063065 17.28515625 14.50390625 C15.85562397 17.47086004 14.34695232 19.78187591 12.16015625 22.25390625 C11.62132812 22.8675 11.0825 23.48109375 10.52734375 24.11328125 C10.11742187 24.5721875 9.7075 25.03109375 9.28515625 25.50390625 C5.90284967 23.97717064 3.18255676 22.00137647 0.28515625 19.69140625 C-0.56046875 19.02496094 -1.40609375 18.35851562 -2.27734375 17.671875 C-4.78985318 15.43719113 -6.80984425 13.27561452 -8.71484375 10.50390625 C-8.79063777 6.18364729 -8.34362967 4.24048404 -5.52734375 0.94140625 C-2.71484375 -0.49609375 -2.71484375 -0.49609375 0 0 Z " fill="#505050" transform="translate(196.71484375,168.49609375)"/>
<path d="M0 0 C2.73723865 2.51530038 3.87088667 4.13446248 4.421875 7.828125 C3.86846063 11.98898118 1.89834153 13.89468628 -1.0625 16.625 C-1.56112549 17.10428955 -2.05975098 17.5835791 -2.57348633 18.07739258 C-6.13657126 21.41961801 -9.58921877 23.94163542 -14 26 C-16.64 22.7 -19.28 19.4 -22 16 C-8.30694741 -1.39387762 -8.30694741 -1.39387762 0 0 Z " fill="#4F4F4F" transform="translate(316,168)"/>
<path d="M0 0 C0.99 0 1.98 0 3 0 C3.34683838 1.3753894 3.34683838 1.3753894 3.70068359 2.77856445 C5.21239934 6.52660829 6.39842985 7.45234048 9.7890625 9.54296875 C10.73007813 10.14173828 11.67109375 10.74050781 12.640625 11.35742188 C14.11789063 12.26331055 14.11789063 12.26331055 15.625 13.1875 C17.58140204 14.40072334 19.53227269 15.62292789 21.4765625 16.85546875 C22.777146 17.65440552 22.777146 17.65440552 24.10400391 18.46948242 C24.72968262 18.97455322 25.35536133 19.47962402 26 20 C26 20.99 26 21.98 26 23 C25.01 23.33 24.02 23.66 23 24 C22.67 24.99 22.34 25.98 22 27 C18.46324349 25.47147075 16.00435254 23.3583611 13.1875 20.75 C12.30835938 19.94949219 11.42921875 19.14898437 10.5234375 18.32421875 C9.02042354 16.93986379 7.52332966 15.54896731 6.0390625 14.14453125 C2.16891385 10.59835432 -0.83614927 9.05384709 -6 8 C-6 7.34 -6 6.68 -6 6 C-4.35 5.67 -2.7 5.34 -1 5 C-0.67 3.35 -0.34 1.7 0 0 Z " fill="#535353" transform="translate(163,143)"/>
<path d="M0 0 C0.99 0.33 1.98 0.66 3 1 C3.6875 3.0625 3.6875 3.0625 4 5 C5.32 5.33 6.64 5.66 8 6 C7.67 6.99 7.34 7.98 7 9 C5.32543205 9.42231889 3.65058491 9.84357179 1.97412109 10.25830078 C-1.79546336 11.67457552 -4.38131485 14.63743521 -7.1875 17.4375 C-8.38780521 18.60442774 -9.58958627 19.76983967 -10.79296875 20.93359375 C-11.34903809 21.47226074 -11.90510742 22.01092773 -12.47802734 22.56591797 C-17.18386108 27 -17.18386108 27 -20 27 C-21.38938077 25.03852126 -22.7260411 23.03833424 -24 21 C-17.58953847 16.22625205 -11.17838456 11.77228625 -4.21484375 7.8359375 C-1.41620564 5.51607875 -0.86137557 3.47470146 0 0 Z " fill="#555555" transform="translate(343,143)"/>
</svg>
